<svg width="34" height="26" viewBox="0 0 34 26" fill="none" xmlns="http://www.w3.org/2000/svg">
<path d="M24.813 6.85366C24.813 6.57841 24.8951 6.30933 25.049 6.0805C25.2029 5.85167 25.4217 5.67338 25.6776 5.56822C25.9336 5.46305 26.2152 5.43573 26.4867 5.48972C26.7583 5.54371 27.0076 5.67659 27.2032 5.87151C27.3333 6.00032 27.4366 6.15336 27.5071 6.3219C27.5777 6.49043 27.6141 6.67113 27.6142 6.85366V19.1048C27.6148 19.3803 27.5331 19.6497 27.3794 19.879C27.2257 20.1082 27.0069 20.2869 26.7509 20.3924C26.4948 20.4979 26.213 20.5255 25.9412 20.4715C25.6694 20.4176 25.4198 20.2847 25.2241 20.0896C25.0938 19.9609 24.9905 19.8079 24.9199 19.6393C24.8494 19.4708 24.813 19.29 24.813 19.1075V6.85366ZM0.274414 5.44944C0.274441 5.26688 0.310771 5.08614 0.381315 4.91759C0.45186 4.74903 0.555228 4.596 0.685478 4.46729C0.881684 4.27352 1.13118 4.14176 1.40256 4.0886C1.67393 4.03544 1.95507 4.06325 2.21058 4.16853C2.4661 4.27381 2.68456 4.45186 2.83849 4.68027C2.99242 4.90868 3.07493 5.17723 3.07564 5.45214V20.4955C3.07511 20.8649 2.92729 21.219 2.66457 21.4803C2.46837 21.6741 2.21887 21.8058 1.94749 21.859C1.67612 21.9122 1.39498 21.8844 1.13947 21.7791C0.883955 21.6738 0.665486 21.4957 0.511558 21.2673C0.35763 21.0389 0.27512 20.7704 0.274414 20.4955L0.274414 5.44944ZM6.42404 1.91047C6.42385 1.72812 6.45982 1.54753 6.52989 1.37901C6.59995 1.21049 6.70274 1.05735 6.83238 0.928321C7.02806 0.734322 7.27716 0.602264 7.54826 0.548806C7.81937 0.495348 8.10033 0.522884 8.3557 0.62794C8.61108 0.732997 8.82943 0.910869 8.98321 1.13912C9.137 1.36737 9.21933 1.63577 9.21981 1.91047V24.0317C9.21986 24.3067 9.13792 24.5754 8.98435 24.8041C8.83077 25.0328 8.61244 25.2111 8.35696 25.3164C8.10147 25.4218 7.82029 25.4496 7.54893 25.3962C7.27757 25.3429 7.02822 25.2107 6.83238 25.0166C6.7025 24.8877 6.59955 24.7346 6.52947 24.5661C6.45939 24.3975 6.42356 24.2168 6.42404 24.0344V1.91047ZM18.6879 9.69999C18.6877 9.51765 18.7237 9.33706 18.7937 9.16853C18.8638 9.00001 18.9666 8.84687 19.0962 8.71784C19.3585 8.45778 19.7139 8.31174 20.0844 8.31174C20.4549 8.31174 20.8103 8.45778 21.0726 8.71784C21.3342 8.97859 21.481 9.33179 21.4809 9.69999V16.2557C21.4814 16.6248 21.3346 16.979 21.0726 17.2406C20.9429 17.3697 20.7889 17.4721 20.6193 17.542C20.4497 17.6118 20.268 17.6478 20.0844 17.6478C19.9009 17.6478 19.7191 17.6118 19.5495 17.542C19.38 17.4721 19.2259 17.3697 19.0962 17.2406C18.9664 17.1117 18.8634 16.9586 18.7933 16.7901C18.7232 16.6215 18.6874 16.4408 18.6879 16.2584V9.69999ZM12.56 5.45755C12.56 5.27459 12.5963 5.09342 12.6668 4.92442C12.7374 4.75542 12.8408 4.60191 12.9711 4.4727C13.1673 4.27893 13.4168 4.14717 13.6882 4.09401C13.9596 4.04085 14.2407 4.06866 14.4962 4.17394C14.7517 4.27922 14.9702 4.45727 15.1241 4.68568C15.2781 4.91409 15.3606 5.18264 15.3613 5.45755V20.5036C15.3612 20.6861 15.3249 20.8669 15.2544 21.0354C15.1838 21.204 15.0805 21.357 14.9502 21.4857C14.754 21.6795 14.5045 21.8113 14.2331 21.8644C13.9617 21.9176 13.6806 21.8898 13.4251 21.7845C13.1696 21.6792 12.9511 21.5012 12.7972 21.2728C12.6433 21.0443 12.5608 20.7758 12.56 20.5009V5.45755ZM30.9545 3.76653C30.954 3.5852 30.9897 3.40558 31.0593 3.23796C31.1289 3.07035 31.2311 2.91805 31.3601 2.7898L31.39 2.76274C31.5184 2.6377 31.6703 2.53915 31.8372 2.47278C32.004 2.40641 32.1824 2.37354 32.3621 2.37605C32.5418 2.37857 32.7192 2.41642 32.8841 2.48744C33.049 2.55845 33.1981 2.66121 33.3228 2.7898C33.5813 3.04993 33.7261 3.40092 33.7257 3.76653V22.1648C33.7257 22.5312 33.581 22.8828 33.3228 23.1443L33.2929 23.1713C33.1646 23.2964 33.0126 23.3949 32.8458 23.4613C32.6789 23.5277 32.5005 23.5605 32.3208 23.558C32.1411 23.5555 31.9637 23.5177 31.7988 23.4466C31.6339 23.3756 31.4848 23.2729 31.3601 23.1443C31.1002 22.8838 30.9544 22.5317 30.9545 22.1648V3.76653Z" fill="white"/>
</svg>
